# xmcd
#
# Track frame offsets: 
#        150
#        19952
#        38550
#        56865
#        72145
#        92412
#        111227
#        128350
#        148242
#        171530
#        195100
#
# Disc length: 2841 seconds
#
# Revision: 2
# Processed by: cddbd v1.5.2PL0 Copyright (c) Steve Scherf et al.
# Submitted via: ExactAudioCopy v1.0b3
#
DISCID=930b170b
DTITLE=Walter Wolfman Washington - Sada
DYEAR=1991
DGENRE=Blues
TTITLE0=I'll be good
TTITLE1=Skin tight
TTITLE2=Ain't no love in the heart of the city
TTITLE3=Girl I wanna dance with you
TTITLE4=Share your love
TTITLE5=Chokin' kind
TTITLE6=Southern comfort
TTITLE7=I got a woman
TTITLE8=Sada
TTITLE9=Nothing left to be desired
TTITLE10=What's it gonna take
EXTD=
EXTT0=
EXTT1=
EXTT2=
EXTT3=
EXTT4=
EXTT5=
EXTT6=
EXTT7=
EXTT8=
EXTT9=
EXTT10=
PLAYORDER=
